<?xml version="1.0" standalone="no"?>
<svg xmlns="http://www.w3.org/2000/svg" viewBox="0 0 1440 320"><path fill="#d32026" fill-opacity="1.0" d="M0,128L17.1,122.7C34.3,117,69,107,103,96C137.1,85,171,75,206,74.7C240,75,274,85,309,96C342.9,107,377,117,411,112C445.7,107,480,85,514,112C548.6,139,583,213,617,224C651.4,235,686,181,720,149.3C754.3,117,789,107,823,96C857.1,85,891,75,926,101.3C960,128,994,192,1029,197.3C1062.9,203,1097,149,1131,117.3C1165.7,85,1200,75,1234,106.7C1268.6,139,1303,213,1337,208C1371.4,203,1406,117,1423,74.7L1440,32L1440,320L1422.9,320C1405.7,320,1371,320,1337,320C1302.9,320,1269,320,1234,320C1200,320,1166,320,1131,320C1097.1,320,1063,320,1029,320C994.3,320,960,320,926,320C891.4,320,857,320,823,320C788.6,320,754,320,720,320C685.7,320,651,320,617,320C582.9,320,549,320,514,320C480,320,446,320,411,320C377.1,320,343,320,309,320C274.3,320,240,320,206,320C171.4,320,137,320,103,320C68.6,320,34,320,17,320L0,320Z"></path></svg>